<svg width="512" height="512" viewBox="0 0 512 512" fill="none" xmlns="http://www.w3.org/2000/svg">
<path opacity="0.987" fill-rule="evenodd" clip-rule="evenodd" d="M244.5 47.5C301.501 47.3333 358.501 47.5 415.5 48C441.333 53.8333 457.167 69.6667 463 95.5C463.667 152.5 463.667 209.5 463 266.5C456.941 293.226 440.441 309.059 413.5 314C398.167 314.667 382.833 314.667 367.5 314C356.309 308.361 353.475 299.861 359 288.5C360.938 285.894 363.438 284.061 366.5 283C381.099 281.716 395.765 281.05 410.5 281C420.387 278.322 426.887 272.156 430 262.5C431.635 210.528 431.968 158.528 431 106.5C429.633 90.8001 421.133 81.9668 405.5 80C353.139 79.0313 300.806 79.3646 248.5 81C239.792 83.4395 233.959 88.9395 231 97.5C229.716 112.099 229.05 126.765 229 141.5C224.297 153.961 215.797 157.461 203.5 152C200.567 149.736 198.4 146.902 197 143.5C196.333 128.167 196.333 112.833 197 97.5C202.125 70.5445 217.958 53.8779 244.5 47.5Z" fill="black"/>
<path opacity="0.983" fill-rule="evenodd" clip-rule="evenodd" d="M97.5 196.5C153.168 196.333 208.834 196.5 264.5 197C291.667 202.833 308.167 219.333 314 246.5C314.667 302.167 314.667 357.833 314 413.5C309.059 440.441 293.226 456.941 266.5 463C209.5 463.667 152.5 463.667 95.5 463C69.6398 457.14 53.8065 441.307 48 415.5C47.3333 358.5 47.3333 301.5 48 244.5C54.2358 217.762 70.7358 201.762 97.5 196.5ZM100.5 229.5C154.168 229.333 207.834 229.5 261.5 230C271.774 233.273 278.274 240.106 281 250.5C281.667 303.833 281.667 357.167 281 410.5C277.059 422.9 268.559 429.733 255.5 431C205.5 431.667 155.5 431.667 105.5 431C89.8666 429.033 81.3666 420.2 80 404.5C79.3333 354.833 79.3333 305.167 80 255.5C81.3786 242.357 88.2119 233.691 100.5 229.5Z" fill="black"/>
</svg>
